# xmcd
#
# Track frame offsets: 
#        150
#        21834
#        40036
#        60842
#        70200
#        84246
#        95645
#        117512
#        135473
#        150454
#        163284
#
# Disc length: 2303 seconds
#
# Revision: 2
# Processed by: cddbd v1.5.2PL0 Copyright (c) Steve Scherf et al.
# Submitted via: ExactAudioCopy v0.99pb5
#
DISCID=8508fd0b
DTITLE=Stiller Has - Chole
DYEAR=1998
DGENRE=CH
TTITLE0=Chole
TTITLE1=Fisch
TTITLE2=Rouch
TTITLE3=Tequila halleluja
TTITLE4=125 ccm
TTITLE5=Wanderer
TTITLE6=Furt
TTITLE7=Mama
TTITLE8=Wölf
TTITLE9=Wäge dir
TTITLE10=Hatz
EXTD=ID3G:   0
EXTT0=
EXTT1=
EXTT2=
EXTT3=
EXTT4=
EXTT5=
EXTT6=
EXTT7=
EXTT8=
EXTT9=
EXTT10=
PLAYORDER=
